<svg width="251" height="251" viewBox="0 0 251 251" fill="none" xmlns="http://www.w3.org/2000/svg">
<g opacity="0.05">
<path d="M127.97 139.197C141.508 142.951 155.526 135.02 159.281 121.482C163.035 107.944 155.104 93.9263 141.566 90.1719C128.028 86.4175 114.01 94.3486 110.256 107.886C106.501 121.424 114.433 135.442 127.97 139.197Z" stroke="white" stroke-width="10" stroke-linecap="round" stroke-linejoin="round"/>
<path d="M55.9521 89.5271L74.3364 94.6255" stroke="white" stroke-width="10" stroke-linecap="round" stroke-linejoin="round"/>
<path d="M64.4492 58.8867L82.8335 63.9851" stroke="white" stroke-width="10" stroke-linecap="round" stroke-linejoin="round"/>
<path d="M47.4551 120.167L65.8393 125.266" stroke="white" stroke-width="10" stroke-linecap="round" stroke-linejoin="round"/>
<path d="M38.958 150.808L57.3423 155.906" stroke="white" stroke-width="10" stroke-linecap="round" stroke-linejoin="round"/>
<path d="M86.1028 147.384C91.9669 142.863 98.803 139.77 106.07 138.349C113.337 136.927 120.835 137.218 127.97 139.197C135.105 141.175 141.681 144.788 147.178 149.749C152.675 154.71 156.942 160.882 159.64 167.778" stroke="white" stroke-width="10" stroke-linecap="round" stroke-linejoin="round"/>
<path d="M173.955 211.344L211.343 76.526C212.282 73.1416 210.299 69.6371 206.915 68.6985L96.6093 38.108C93.2249 37.1694 89.7203 39.1522 88.7817 42.5367L51.3934 177.355C50.4548 180.739 52.4376 184.244 55.822 185.182L166.128 215.773C169.512 216.711 173.017 214.728 173.955 211.344Z" stroke="white" stroke-width="10" stroke-linecap="round" stroke-linejoin="round"/>
</g>
</svg>
