<svg width="220" height="220" viewBox="0 0 220 220" fill="none" xmlns="http://www.w3.org/2000/svg">
<g opacity="0.05">
<path d="M90.448 127.278C112.416 133.785 135.499 121.251 142.006 99.2838C148.513 77.3161 135.98 54.2327 114.012 47.7256C92.0447 41.2184 68.9613 53.7517 62.4541 75.7194C55.947 97.6871 68.4803 120.771 90.448 127.278Z" stroke="white" stroke-width="10" stroke-miterlimit="10"/>
<path d="M25.7133 136.947C35.1428 130.705 45.825 126.604 57.009 124.932C68.193 123.261 79.6075 124.059 90.45 127.27C101.293 130.482 111.3 136.03 119.769 143.523C128.239 151.016 134.964 160.273 139.473 170.644" stroke="white" stroke-width="10" stroke-linecap="round" stroke-linejoin="round"/>
<path d="M166.267 143.967C172.125 145.702 178.281 142.36 180.016 136.502C181.752 130.644 178.409 124.488 172.551 122.753C166.693 121.018 160.538 124.36 158.802 130.218C157.067 136.076 160.409 142.232 166.267 143.967Z" stroke="white" stroke-width="10" stroke-linecap="round" stroke-linejoin="round"/>
<path d="M172.552 122.754L174.908 114.799" stroke="white" stroke-width="10" stroke-linecap="round" stroke-linejoin="round"/>
<path d="M161.766 125.328L156.116 119.328" stroke="white" stroke-width="10" stroke-linecap="round" stroke-linejoin="round"/>
<path d="M158.624 135.935L150.618 137.89" stroke="white" stroke-width="10" stroke-linecap="round" stroke-linejoin="round"/>
<path d="M166.268 143.967L163.911 151.922" stroke="white" stroke-width="10" stroke-linecap="round" stroke-linejoin="round"/>
<path d="M177.054 141.393L182.704 147.393" stroke="white" stroke-width="10" stroke-linecap="round" stroke-linejoin="round"/>
<path d="M180.196 130.786L188.202 128.831" stroke="white" stroke-width="10" stroke-linecap="round" stroke-linejoin="round"/>
</g>
</svg>
