<svg width="224" height="225" viewBox="0 0 224 225" fill="none" xmlns="http://www.w3.org/2000/svg">
<g opacity="0.05">
<path d="M70 126.5C89.33 126.5 105 110.83 105 91.5C105 72.17 89.33 56.5 70 56.5C50.67 56.5 35 72.17 35 91.5C35 110.83 50.67 126.5 70 126.5Z" stroke="white" stroke-width="10" stroke-linecap="round" stroke-linejoin="round"/>
<path d="M133 70.5001H217" stroke="white" stroke-width="10" stroke-linecap="round" stroke-linejoin="round"/>
<path d="M133 112.5H217" stroke="white" stroke-width="10" stroke-linecap="round" stroke-linejoin="round"/>
<path d="M154 154.5H217" stroke="white" stroke-width="10" stroke-linecap="round" stroke-linejoin="round"/>
<path d="M15.75 168.5C18.8342 156.454 25.8398 145.777 35.6623 138.153C45.4849 130.528 57.5656 126.39 70 126.39C82.4344 126.39 94.5151 130.528 104.338 138.153C114.16 145.777 121.166 156.454 124.25 168.5" stroke="white" stroke-width="10" stroke-linecap="round" stroke-linejoin="round"/>
</g>
</svg>
