<svg width="218" height="149" viewBox="0 0 218 149" fill="none" xmlns="http://www.w3.org/2000/svg">
<path d="M102.068 9.51972C99.0177 11.5078 89.738 17.5001 81.4461 22.8362C73.1542 28.1722 66.2139 32.686 66.0233 32.8667C65.5274 33.3368 65.6688 33.2613 84.5653 22.9396C94.0009 17.7857 103.086 12.8308 104.755 11.9289L107.79 10.2892L112.727 12.9684C115.442 14.4419 124.994 19.6606 133.953 24.5655C142.912 29.4704 150.008 33.2671 149.722 33.0022C149.198 32.5166 107.87 5.84511 107.703 5.88442C107.653 5.89615 105.117 7.53204 102.068 9.51972Z" fill="#00DBC3"/>
<path d="M106.607 35.4721C105.731 36.8331 105.013 38.0027 105.013 38.071C105.013 38.19 107.487 37.7968 109.048 37.4301C110.228 37.1525 110.273 36.3113 109.2 34.595L108.201 32.9974L106.607 35.4721Z" fill="#00DBC3"/>
<path d="M106.231 39.1388C104.245 39.494 104.101 39.5913 102.871 41.3979C102.164 42.4361 101.577 43.4056 101.566 43.5518C101.542 43.8961 104.327 46.9071 104.669 46.9071C104.812 46.9071 105.129 46.4025 105.373 45.7861C105.618 45.1698 106.428 43.3701 107.174 41.7873C107.92 40.2045 108.48 38.8777 108.418 38.8387C108.356 38.7994 107.372 38.9346 106.231 39.1388Z" fill="#00DBC3"/>
<path d="M108.432 41.9029C107.438 43.893 106.725 45.6209 106.847 45.7427C107.067 45.9617 111.373 43.645 112.924 42.4726L113.731 41.8635L112.613 40.0738C110.974 37.4508 110.567 37.6288 108.432 41.9029Z" fill="#00DBC3"/>
<path d="M99.3576 46.9416C98.6309 48.0991 98.1061 49.1155 98.1917 49.2007C98.3702 49.3783 102.638 48.0066 102.998 47.6559C103.186 47.4738 101.094 44.8377 100.762 44.8377C100.717 44.8377 100.084 45.7844 99.3576 46.9416Z" fill="#00DBC3"/>
<path d="M110.075 45.5454C107.807 46.8557 105.906 47.9735 105.85 48.0291C105.794 48.0849 106.246 48.7075 106.854 49.4132L107.959 50.6959L111.273 49.6563C114.489 48.6478 114.608 48.5733 115.312 47.132L116.037 45.6471L115.309 44.38C114.909 43.6833 114.495 43.1242 114.389 43.138C114.284 43.1518 112.343 44.2351 110.075 45.5454Z" fill="#00DBC3"/>
<path d="M100.681 49.7491C98.9657 50.3206 97.3894 50.8324 97.1784 50.8873C96.9316 50.9511 96.8748 51.4581 97.0189 52.3097C97.2737 53.8169 97.2335 53.8124 100.91 52.7418C103.171 52.0838 103.231 52.0358 103.77 50.4617C104.073 49.5773 104.32 48.8037 104.32 48.7427C104.32 48.5592 103.935 48.6658 100.681 49.7491Z" fill="#00DBC3"/>
<path d="M94.7357 55.4238C93.1393 55.7342 91.3073 60.4684 92.6333 60.8564C94.9505 61.5345 97.3887 61.9118 97.3894 61.5921C97.3922 60.1776 96.209 55.1927 95.8797 55.2317C95.6614 55.2576 95.1464 55.3441 94.7357 55.4238Z" fill="#00DBC3"/>
<path d="M99.9881 54.2142C98.6537 54.5988 97.5357 54.9361 97.5034 54.9637C97.4712 54.9913 97.7363 56.6293 98.0926 58.6038C98.7418 62.1995 99.0423 62.7579 100.335 62.7672C100.946 62.7717 101.124 62.2757 101.844 58.5473C102.293 56.2237 102.735 54.1287 102.826 53.8914C103.033 53.3523 102.944 53.3623 99.9881 54.2142Z" fill="#00DBC3"/>
<path d="M105.809 52.538C105.198 52.7608 104.54 53.1009 104.347 53.294C104.154 53.4868 103.57 55.7867 103.049 58.4045C102.026 63.5494 102.022 63.5263 103.916 64.0275C104.565 64.1992 104.938 63.9782 105.815 62.9034C106.416 62.1674 107.634 60.7895 108.523 59.841C109.411 58.8925 110.397 57.4957 110.715 56.7369L111.292 55.3573L109.452 53.73C107.445 51.9548 107.427 51.9486 105.809 52.538Z" fill="#00DBC3"/>
<path d="M110.905 50.948C110.048 51.2436 109.278 51.544 109.196 51.6157C109.016 51.7727 111.289 54.1501 111.619 54.1501C111.747 54.1501 112.145 53.4137 112.504 52.5135C112.864 51.6133 113.21 50.7597 113.273 50.6165C113.444 50.233 112.663 50.3423 110.905 50.948Z" fill="#00DBC3"/>
<path d="M116.07 49.3535C115.413 49.5984 114.829 50.4051 113.914 52.3321C113.223 53.7855 112.724 55.0399 112.804 55.1196C113.11 55.4238 118.547 50.183 118.451 49.677C118.329 49.0383 117.293 48.8979 116.07 49.3535Z" fill="#00DBC3"/>
<path d="M116.541 53.5493L113.685 56.0471L115.848 58.0247C117.037 59.1122 118.096 60.0048 118.202 60.008C118.308 60.0111 119.209 58.9463 120.206 57.6419L122.018 55.2703L120.753 53.1581C120.058 51.9965 119.468 51.0473 119.443 51.0487C119.417 51.0504 118.111 52.1755 116.541 53.5493Z" fill="#00DBC3"/>
<path d="M112.024 57.6985C111.296 58.4793 110.104 61.9881 109.56 64.9473C109.28 66.4701 109.32 66.647 110.06 67.1296C110.503 67.4182 111.165 67.6038 111.532 67.5417C112.171 67.4334 117.144 61.718 117.144 61.0913C117.144 60.9244 116.152 59.9207 114.939 58.8615L112.735 56.9352L112.024 57.6985Z" fill="#00DBC3"/>
<path d="M120.863 58.7108L119.215 60.8571L120.606 62.2412L121.997 63.6253L123.613 62.0167L125.23 60.4077L124.059 58.4859C123.416 57.4291 122.804 56.5644 122.7 56.5644C122.596 56.5644 121.769 57.5302 120.863 58.7108Z" fill="#00DBC3"/>
<path d="M117.304 63.0479C116.725 63.7502 115.654 65.0618 114.923 65.9631L113.594 67.6014H116.162H118.73L119.993 66.0979L121.255 64.5945L119.806 63.1828L118.357 61.7711L117.304 63.0479Z" fill="#00DBC3"/>
<path d="M121.35 66.3439C120.322 67.4331 120.408 67.6014 121.996 67.6014C123.572 67.6014 123.63 67.5062 122.736 66.3759L122.091 65.5592L121.35 66.3439Z" fill="#00DBC3"/>
<path d="M124.319 63.0459C123.613 63.7654 123.036 64.5024 123.037 64.6842C123.038 64.8659 123.576 65.5968 124.233 66.308C125.36 67.5293 125.543 67.6014 127.523 67.6014C128.677 67.6014 129.621 67.529 129.621 67.4403C129.621 67.0964 126.072 61.738 125.844 61.738C125.711 61.738 125.025 62.3264 124.319 63.0459Z" fill="#00DBC3"/>
<path d="M107.495 62.7465C106.702 63.6826 106.053 64.5897 106.053 64.7625C106.053 65.1626 107.807 65.9707 108.082 65.6972C108.326 65.4544 109.206 61.3114 109.047 61.153C108.987 61.0934 108.289 61.8104 107.495 62.7465Z" fill="#00DBC3"/>
<path d="M104.378 66.6029C104.129 66.9992 103.997 67.3948 104.085 67.4817C104.172 67.569 105.08 67.5924 106.101 67.5345C107.957 67.4289 107.958 67.4282 107.093 66.8612C105.597 65.8813 104.874 65.8124 104.378 66.6029Z" fill="#00DBC3"/>
<path d="M101.774 65.7934C101.49 67.5334 101.997 67.8759 102.929 66.5732C103.355 65.9786 103.647 65.4447 103.578 65.3864C103.51 65.3281 103.123 65.1091 102.718 64.9001C102.043 64.551 101.964 64.6252 101.774 65.7934Z" fill="#00DBC3"/>
<path d="M98.9033 64.5835C99.018 65.0105 99.1143 65.8641 99.1168 66.4804C99.1206 67.3437 99.2707 67.6014 99.7697 67.6014C100.286 67.6014 100.456 67.2675 100.603 65.9631C100.797 64.2534 100.544 63.8226 99.341 63.8126C98.8385 63.8085 98.7407 63.9806 98.9033 64.5835Z" fill="#00DBC3"/>
<path d="M92.0313 63.5487C91.9207 64.3551 91.7942 65.5578 91.7502 66.2218L91.6702 67.4289L94.9235 67.5286L98.1768 67.6286L97.9599 66.3214C97.8407 65.6027 97.7412 64.6162 97.7391 64.1292C97.7356 63.3146 97.5346 63.1969 95.2226 62.6589C93.8405 62.3371 92.6025 62.076 92.4711 62.0784C92.3398 62.0808 92.1419 62.7424 92.0313 63.5487Z" fill="#00DBC3"/>
<path d="M88.229 64.6124C87.3577 66.0038 86.6448 67.2454 86.6448 67.3717C86.6448 67.4979 87.4804 67.6014 88.5017 67.6014H90.3587L90.6814 64.8421C90.9746 62.3388 90.9493 62.0829 90.409 62.0829C90.044 62.0829 89.1998 63.0624 88.229 64.6124Z" fill="#00DBC3"/>
<path d="M64.541 82.2795C63.8614 82.7531 63.7706 83.1211 63.7706 85.3978V87.9791L66.1966 90.979C67.5309 92.6291 68.6421 94.2525 68.666 94.5864C68.6899 94.9206 68.7093 95.4266 68.7093 95.7111C68.7093 96.8048 68.587 96.9183 67.4096 96.9183C66.2254 96.9183 66.1966 96.8855 66.1966 95.5387C66.1966 94.1918 66.1678 94.1591 64.9836 94.1591H63.7706V96.332C63.7706 97.5622 63.9511 98.6846 64.1864 98.9188C64.4415 99.1726 65.6882 99.3326 67.4096 99.3326C69.1311 99.3326 70.3777 99.1726 70.6328 98.9188C70.8831 98.6697 71.0487 97.4653 71.0487 95.897V93.2892L68.6227 90.2892C66.8957 88.1536 66.1966 87.0071 66.1966 86.3094C66.1966 85.7703 66.0095 85.1433 65.7807 84.9156C65.4574 84.5938 65.7221 84.5017 66.9729 84.5017C68.5807 84.5017 68.5807 84.5017 68.6885 85.7951C68.7866 86.9761 68.894 87.0978 69.9223 87.1965L71.0487 87.3048V85.0605C71.0487 82.244 70.4987 81.7425 67.4096 81.7425C66.0711 81.7425 65.0321 81.937 64.541 82.2795Z" fill="#00DBC3"/>
<path d="M71.8781 82.2881C71.9938 82.5882 72.0885 86.546 72.0885 91.0832V99.3326H73.1282H74.1679V95.7111V92.0896H75.5542H76.9406V95.7111V99.3326H78.1536H79.3666V90.5376V81.7425H78.1536H76.9406V85.5364V89.3304H75.5542H74.1679V85.5364V81.7425H72.9178C71.9204 81.7425 71.7103 81.8529 71.8781 82.2881Z" fill="#00DBC3"/>
<path fill-rule="evenodd" clip-rule="evenodd" d="M81.3026 89.934C80.7637 94.4395 80.3024 98.4359 80.2778 98.8153C80.2431 99.353 80.4816 99.5289 81.3594 99.613C82.5118 99.7238 82.6574 99.4534 82.5791 97.3494C82.5683 97.0618 83.1201 96.9183 84.2364 96.9183H85.9097L86.0175 98.2117C86.1156 99.3927 86.223 99.5144 87.2513 99.613C88.6442 99.7469 88.6293 100.249 87.5033 91.0946C86.2074 80.556 86.6171 81.7425 84.2749 81.7425H82.2827L81.3026 89.934ZM83.2975 94.047C83.1443 93.8945 83.6143 89.7174 84.1193 86.7436C84.3175 85.5768 84.4367 86.029 84.8928 89.6753L85.4321 93.9866L84.4454 94.0973C83.903 94.158 83.3862 94.1353 83.2975 94.047Z" fill="#00DBC3"/>
<path fill-rule="evenodd" clip-rule="evenodd" d="M89.207 82.2881C89.3228 82.5882 89.4174 86.546 89.4174 91.0832V99.3326H90.6526H91.8882L91.779 95.7104C91.7114 93.4648 91.7984 92.131 92.0077 92.2007C92.1932 92.2628 92.7529 93.8542 93.2513 95.737L94.1576 99.1602L95.408 99.2661L96.6585 99.372L95.6933 95.7915L94.728 92.2107L95.7116 91.6488L96.6956 91.087V86.9516C96.6956 81.8018 96.6429 81.7425 92.076 81.7425C89.4105 81.7425 89.0251 81.816 89.207 82.2881ZM91.5537 89.3304L91.4387 86.9154L91.3236 84.5L92.7966 84.501L94.2695 84.5017V86.9161V89.3304H92.9116H91.5537Z" fill="#00DBC3"/>
<path fill-rule="evenodd" clip-rule="evenodd" d="M99.2727 82.0515C99.3781 82.2216 98.9975 86.099 98.4267 90.6683C97.8559 95.2376 97.3887 99.1436 97.3887 99.3485C97.3887 99.5613 97.8722 99.6748 98.5151 99.613C99.5434 99.5144 99.6508 99.3927 99.7489 98.2117C99.8557 96.9283 99.8685 96.9183 101.389 96.9183C102.778 96.9183 102.94 97.0066 103.129 97.8668C103.245 98.3883 103.398 99.0095 103.472 99.2464C103.639 99.7848 105.707 99.821 105.707 99.2857C105.707 98.3245 103.582 82.2947 103.421 82.0339C103.321 81.8736 102.304 81.7425 101.16 81.7425C100.016 81.7425 99.167 81.8815 99.2727 82.0515ZM102.589 93.7279C102.588 93.9766 102.147 94.1591 101.548 94.1591C101.492 94.1591 101.44 94.1595 101.389 94.16L101.387 94.16C101.095 94.1627 100.89 94.1646 100.756 94.0679C100.439 93.8375 100.531 93.048 100.843 90.3788L100.846 90.3512L100.871 90.1354C100.885 90.0144 100.9 89.8898 100.915 89.7615C101.141 87.8173 101.426 86.2263 101.548 86.2263C101.735 86.2263 102.595 92.4201 102.589 93.7279Z" fill="#00DBC3"/>
<path d="M106.325 90.5372L106.423 99.3326H107.624H108.826V95.985V92.6374L110.449 95.985L112.071 99.3326H113.369H114.668L112.595 94.9879L110.522 90.6428L112.608 86.3497C114.776 81.8867 114.802 81.5335 112.939 81.8015C112.329 81.8894 111.78 82.6551 110.511 85.1915L108.872 88.4681L108.849 85.1053L108.826 81.7425L107.526 81.7421H106.226L106.325 90.5372Z" fill="#00DBC3"/>
<path fill-rule="evenodd" clip-rule="evenodd" d="M116.283 89.934C115.007 100.336 115 99.4823 116.364 99.613C117.516 99.7238 117.662 99.4534 117.584 97.3494C117.573 97.0618 118.125 96.9183 119.241 96.9183H120.914L121.022 98.2117C121.12 99.3927 121.227 99.5144 122.256 99.613C123.663 99.7483 123.658 100.315 122.342 90.0202C121.773 85.5623 121.306 81.876 121.305 81.8287C121.304 81.7815 120.399 81.7425 119.295 81.7425H117.287L116.283 89.934ZM118.302 94.047C118.149 93.8945 118.619 89.7174 119.124 86.7436C119.322 85.5768 119.441 86.029 119.897 89.6753L120.437 93.9866L119.45 94.0973C118.907 94.158 118.391 94.1353 118.302 94.047Z" fill="#00DBC3"/>
<path fill-rule="evenodd" clip-rule="evenodd" d="M124.212 82.2881C124.327 82.5882 124.422 86.546 124.422 91.0832V99.3326H125.462H126.501V95.6825C126.501 91.0294 127.014 91.0453 128.256 95.737L129.162 99.1602L130.409 99.2661L131.655 99.3716L130.666 95.7308C130.121 93.7279 129.82 92.0896 129.995 92.0896C130.17 92.0896 130.626 91.7792 131.007 91.3998C131.619 90.7904 131.7 90.2503 131.7 86.7633C131.7 81.8287 131.621 81.7425 127.081 81.7425C124.415 81.7425 124.03 81.816 124.212 82.2881ZM126.558 89.3304L126.443 86.9154L126.328 84.5L127.801 84.501L129.274 84.5017V86.9161V89.3304H127.916H126.558Z" fill="#00DBC3"/>
<path d="M132.393 90.5196V99.3326H133.598H134.803L134.898 93.2106L134.993 87.0885L136.204 91.6585C136.87 94.1722 137.499 96.2285 137.601 96.2285C137.703 96.2285 138.328 94.1722 138.989 91.6585L140.191 87.0885L140.286 93.2106L140.38 99.3326H141.591H142.802L142.71 90.6238L142.617 81.9149H140.884H139.152L138.413 84.6742C137.618 87.6448 137.571 87.6311 136.631 84.1568L136.025 81.9149L134.209 81.8108L132.393 81.7063V90.5196Z" fill="#00DBC3"/>
<path fill-rule="evenodd" clip-rule="evenodd" d="M145.356 82.0322C145.455 82.1916 145.076 86.0331 144.514 90.5686C143.953 95.1045 143.491 99.0191 143.489 99.2681C143.485 99.5724 143.854 99.6858 144.61 99.613C145.638 99.5144 145.746 99.3927 145.844 98.2117C145.951 96.9283 145.964 96.9183 147.484 96.9183C148.873 96.9183 149.035 97.0066 149.224 97.8668C149.6 99.5727 149.689 99.6776 150.751 99.6776C151.329 99.6776 151.801 99.5613 151.799 99.4189C151.791 98.4414 149.676 82.2923 149.525 82.0484C149.42 81.8801 148.399 81.7425 147.255 81.7425C146.112 81.7425 145.257 81.8729 145.356 82.0322ZM148.777 94.1591H147.69C147.62 94.1591 147.555 94.1599 147.493 94.1608C147.201 94.1646 146.994 94.1674 146.86 94.071C146.539 93.8411 146.626 93.0471 146.921 90.358C146.947 90.1212 146.975 89.8697 147.004 89.6025C147.225 87.5707 147.514 85.9748 147.647 86.0566C147.779 86.138 147.986 87.2572 148.106 88.5433C148.227 89.8298 148.427 91.6195 148.551 92.5208L148.777 94.1591Z" fill="#00DBC3"/>
<path d="M128.305 128.553L107.754 143.931L106.817 143.248C106.302 142.871 97.458 136.69 87.1646 129.512C76.8712 122.333 67.9035 116.07 67.2363 115.593C63.6898 113.058 69.2919 117.633 87.5947 132.218L107.78 148.303L126.585 132.404C146.438 115.618 149.308 113.159 149.029 113.169C148.934 113.173 139.608 120.096 128.305 128.553Z" fill="#00DBC3"/>
</svg>
