<svg width="46" height="73" viewBox="0 0 46 73" fill="none" xmlns="http://www.w3.org/2000/svg">
<path d="M19.9702 1.8557C18.4172 2.86973 13.6923 5.92624 9.47026 8.64797C5.24823 11.3697 1.71444 13.672 1.61738 13.7642C1.36485 14.004 1.43685 13.9655 11.0585 8.70075C15.8629 6.07191 20.489 3.54457 21.3387 3.08453L22.8839 2.24819L25.3975 3.61477C26.7801 4.36632 31.6436 7.02824 36.2053 9.53006C40.7671 12.0319 44.3803 13.9685 44.2347 13.8334C43.9677 13.5857 22.9244 -0.0186038 22.8394 0.00145149C22.8143 0.00743294 21.5231 0.841844 19.9702 1.8557Z" fill="#00DBC3"/>
<path d="M22.2817 15.0932C21.8353 15.7874 21.4702 16.3839 21.4702 16.4187C21.4702 16.4794 22.7298 16.2789 23.5243 16.0919C24.1255 15.9503 24.1484 15.5212 23.6019 14.6458L23.0931 13.8309L22.2817 15.0932Z" fill="#00DBC3"/>
<path d="M22.0901 16.9634C21.0789 17.1446 21.0053 17.1942 20.379 18.1157C20.0191 18.6452 19.7203 19.1398 19.715 19.2144C19.7026 19.3899 21.1204 20.9258 21.2948 20.9258C21.3676 20.9258 21.5291 20.6684 21.6533 20.354C21.7777 20.0396 22.1902 19.1217 22.5701 18.3143C22.9499 17.507 23.235 16.8302 23.2036 16.8104C23.1722 16.7903 22.6712 16.8593 22.0901 16.9634Z" fill="#00DBC3"/>
<path d="M23.2109 18.3733C22.7047 19.3884 22.3416 20.2697 22.4037 20.3318C22.5159 20.4435 24.7084 19.2619 25.4982 18.6639L25.9087 18.3532L25.3394 17.4403C24.5051 16.1024 24.2979 16.1932 23.2109 18.3733Z" fill="#00DBC3"/>
<path d="M18.5904 20.9434C18.2203 21.5338 17.9531 22.0522 17.9967 22.0957C18.0876 22.1863 20.2608 21.4866 20.4442 21.3077C20.5395 21.2148 19.4745 19.8702 19.3056 19.8702C19.2823 19.8702 18.9604 20.3531 18.5904 20.9434Z" fill="#00DBC3"/>
<path d="M24.0471 20.2312C22.8925 20.8995 21.9246 21.4697 21.896 21.498C21.8676 21.5265 22.0975 21.8441 22.4072 22.204L22.9701 22.8583L24.6574 22.3281C26.2948 21.8137 26.3555 21.7757 26.7138 21.0405L27.0829 20.2831L26.7124 19.6368C26.5087 19.2814 26.298 18.9962 26.2442 19.0033C26.1905 19.0103 25.202 19.5629 24.0471 20.2312Z" fill="#00DBC3"/>
<path d="M19.2643 22.3754C18.3908 22.6669 17.5882 22.928 17.4807 22.9559C17.3551 22.9885 17.3261 23.2471 17.3995 23.6814C17.5293 24.4502 17.5088 24.448 19.3809 23.9019C20.5319 23.5662 20.5624 23.5418 20.8368 22.7388C20.991 22.2878 21.1172 21.8932 21.1172 21.862C21.1172 21.7684 20.921 21.8228 19.2643 22.3754Z" fill="#00DBC3"/>
<path d="M16.237 25.2699C15.4241 25.4282 14.4913 27.8429 15.1665 28.0409C16.3464 28.3867 17.5878 28.5792 17.5882 28.4161C17.5896 27.6946 16.9871 25.152 16.8195 25.1719C16.7083 25.1851 16.4461 25.2292 16.237 25.2699Z" fill="#00DBC3"/>
<path d="M18.9114 24.6529C18.232 24.8491 17.6627 25.0211 17.6462 25.0352C17.6298 25.0493 17.7648 25.8847 17.9462 26.8919C18.2768 28.7259 18.4298 29.0107 19.0878 29.0155C19.3993 29.0178 19.4896 28.7648 19.8565 26.863C20.0851 25.6778 20.3101 24.6093 20.3565 24.4882C20.4618 24.2133 20.4166 24.2184 18.9114 24.6529Z" fill="#00DBC3"/>
<path d="M21.875 23.7979C21.5639 23.9116 21.2289 24.085 21.1308 24.1835C21.0325 24.2819 20.7353 25.4549 20.4701 26.7902C19.949 29.4145 19.9472 29.4027 20.9111 29.6583C21.2416 29.7459 21.4317 29.6332 21.8785 29.085C22.1843 28.7095 22.8046 28.0067 23.2569 27.5229C23.7092 27.0391 24.2114 26.3266 24.3731 25.9396L24.6669 25.2359L23.7302 24.4059C22.7084 23.5004 22.6989 23.4973 21.875 23.7979Z" fill="#00DBC3"/>
<path d="M24.4701 22.9869C24.0334 23.1377 23.6418 23.2909 23.5998 23.3275C23.5082 23.4075 24.6657 24.6202 24.8337 24.6202C24.8986 24.6202 25.1014 24.2446 25.2844 23.7854C25.4674 23.3263 25.6437 22.8908 25.676 22.8178C25.7626 22.6222 25.3652 22.678 24.4701 22.9869Z" fill="#00DBC3"/>
<path d="M27.0997 22.1736C26.7653 22.2985 26.4679 22.71 26.0019 23.6929C25.6504 24.4342 25.3961 25.0741 25.4367 25.1147C25.5925 25.2699 28.3613 22.5967 28.312 22.3386C28.2499 22.0128 27.7228 21.9412 27.0997 22.1736Z" fill="#00DBC3"/>
<path d="M27.3395 24.3137L25.8854 25.5878L26.9866 26.5965C27.5922 27.1512 28.1317 27.6065 28.1855 27.6081C28.2393 27.6097 28.6983 27.0666 29.2057 26.4012L30.1283 25.1916L29.4843 24.1142C29.1303 23.5217 28.83 23.0376 28.8171 23.0383C28.8042 23.0391 28.1393 23.613 27.3395 24.3137Z" fill="#00DBC3"/>
<path d="M25.0398 26.4301C24.6692 26.8284 24.062 28.6181 23.7849 30.1275C23.6423 30.9042 23.663 30.9945 24.0397 31.2406C24.2653 31.3878 24.6025 31.4825 24.7892 31.4508C25.1148 31.3956 27.6466 28.4803 27.6466 28.1607C27.6466 28.0755 27.1415 27.5636 26.5241 27.0233L25.4015 26.0408L25.0398 26.4301Z" fill="#00DBC3"/>
<path d="M29.5401 26.9464L28.7012 28.0412L29.4093 28.7472L30.1175 29.4532L30.9406 28.6327L31.7638 27.812L31.1679 26.8317C30.8401 26.2927 30.5287 25.8517 30.4756 25.8517C30.4226 25.8517 30.0016 26.3442 29.5401 26.9464Z" fill="#00DBC3"/>
<path d="M27.7283 29.1587C27.4336 29.5169 26.8879 30.1859 26.5159 30.6456L25.8394 31.4812H27.1468H28.4541L29.0972 30.7144L29.74 29.9475L29.0022 29.2275L28.2642 28.5074L27.7283 29.1587Z" fill="#00DBC3"/>
<path d="M29.7884 30.8398C29.2648 31.3954 29.3087 31.4812 30.1171 31.4812C30.9199 31.4812 30.9492 31.4327 30.4943 30.8562L30.1655 30.4396L29.7884 30.8398Z" fill="#00DBC3"/>
<path d="M31.3 29.1576C30.9406 29.5246 30.6469 29.9006 30.6474 29.9933C30.6478 30.086 30.9217 30.4588 31.2561 30.8215C31.83 31.4445 31.9235 31.4812 32.9317 31.4812C33.5189 31.4812 33.9995 31.4443 33.9995 31.3991C33.9995 31.2237 32.1924 28.4905 32.0765 28.4905C32.0089 28.4905 31.6595 28.7907 31.3 29.1576Z" fill="#00DBC3"/>
<path d="M22.7339 29.0049C22.3301 29.4824 21.9996 29.9451 21.9996 30.0332C21.9996 30.2373 22.8927 30.6495 23.0326 30.51C23.157 30.3861 23.6047 28.2729 23.5237 28.1922C23.4932 28.1617 23.1378 28.5275 22.7339 29.0049Z" fill="#00DBC3"/>
<path d="M21.1467 30.9719C21.02 31.1741 20.9528 31.3759 20.9972 31.4202C21.0417 31.4647 21.5039 31.4767 22.0241 31.4471C22.9689 31.3933 22.9696 31.3929 22.529 31.1037C21.7673 30.6039 21.3992 30.5687 21.1467 30.9719Z" fill="#00DBC3"/>
<path d="M19.8205 30.559C19.676 31.4466 19.9343 31.6213 20.4089 30.9568C20.6256 30.6535 20.7743 30.3812 20.7394 30.3515C20.7046 30.3217 20.5073 30.21 20.3012 30.1034C19.9575 29.9254 19.9174 29.9632 19.8205 30.559Z" fill="#00DBC3"/>
<path d="M18.359 29.9419C18.4174 30.1597 18.4665 30.5951 18.4677 30.9095C18.4697 31.3498 18.5461 31.4812 18.8002 31.4812C19.0629 31.4812 19.1494 31.3109 19.2246 30.6456C19.3232 29.7735 19.1946 29.5538 18.5819 29.5487C18.326 29.5466 18.2762 29.6344 18.359 29.9419Z" fill="#00DBC3"/>
<path d="M14.86 29.4141C14.8037 29.8254 14.7393 30.4389 14.7169 30.7775L14.6761 31.3933L16.3326 31.4441L17.9891 31.4951L17.8787 30.8284C17.818 30.4618 17.7673 29.9586 17.7662 29.7102C17.7645 29.2947 17.6621 29.2347 16.4849 28.9602C15.7811 28.7961 15.1508 28.6629 15.0839 28.6642C15.017 28.6654 14.9163 29.0028 14.86 29.4141Z" fill="#00DBC3"/>
<path d="M12.9239 29.9567C12.4803 30.6664 12.1173 31.2997 12.1173 31.3641C12.1173 31.4285 12.5428 31.4812 13.0628 31.4812H14.0083L14.1726 30.0738C14.3219 28.797 14.309 28.6664 14.0339 28.6664C13.8481 28.6664 13.4182 29.1661 12.9239 29.9567Z" fill="#00DBC3"/>
<path d="M0.862621 38.9681C0.516563 39.2096 0.470329 39.3973 0.470329 40.5586V41.8752L1.70561 43.4054C2.38502 44.247 2.95078 45.0751 2.96296 45.2454C2.97513 45.4159 2.98502 45.674 2.98502 45.8191C2.98502 46.377 2.92272 46.4348 2.32325 46.4348C1.72026 46.4348 1.70561 46.4181 1.70561 45.7311C1.70561 45.0442 1.69097 45.0274 1.08797 45.0274H0.470329V46.1358C0.470329 46.7633 0.562267 47.3358 0.682091 47.4552C0.811974 47.5847 1.44673 47.6663 2.32325 47.6663C3.19978 47.6663 3.83454 47.5847 3.96442 47.4552C4.09183 47.3282 4.17618 46.7139 4.17618 45.9139V44.5838L2.9409 43.0536C2.06155 41.9642 1.70561 41.3795 1.70561 41.0236C1.70561 40.7486 1.61032 40.4288 1.49385 40.3127C1.3292 40.1485 1.46403 40.1016 2.10091 40.1016C2.91954 40.1016 2.91954 40.1016 2.97443 40.7613C3.02437 41.3636 3.07907 41.4257 3.60266 41.4761L4.17618 41.5313V40.3866C4.17618 38.9499 3.89613 38.6942 2.32325 38.6942C1.64173 38.6942 1.11268 38.7934 0.862621 38.9681Z" fill="#00DBC3"/>
<path d="M4.59847 38.9725C4.65741 39.1255 4.70559 41.1443 4.70559 43.4585V47.6663H5.235H5.7644V45.8191V43.9719H6.47028H7.17616V45.8191V47.6663H7.7938H8.41144V43.1802V38.6942H7.7938H7.17616V40.6293V42.5645H6.47028H5.7644V40.6293V38.6942H5.12788C4.62 38.6942 4.51306 38.7505 4.59847 38.9725Z" fill="#00DBC3"/>
<path fill-rule="evenodd" clip-rule="evenodd" d="M9.3972 42.8724C9.12279 45.1705 8.88791 47.2089 8.87538 47.4024C8.85773 47.6767 8.97914 47.7664 9.42614 47.8093C10.0129 47.8658 10.087 47.7279 10.0471 46.6547C10.0417 46.508 10.3226 46.4348 10.891 46.4348H11.743L11.7979 47.0946C11.8478 47.6969 11.9025 47.759 12.4261 47.8093C13.1353 47.8776 13.1278 48.1339 12.5544 43.4644C11.8946 38.089 12.1032 38.6942 10.9106 38.6942H9.89625L9.3972 42.8724ZM10.413 44.9703C10.335 44.8925 10.5742 42.7619 10.8314 41.2451C10.9323 40.6499 10.993 40.8805 11.2252 42.7404L11.4998 44.9395L10.9974 44.996C10.7212 45.0269 10.4581 45.0153 10.413 44.9703Z" fill="#00DBC3"/>
<path fill-rule="evenodd" clip-rule="evenodd" d="M13.4219 38.9725C13.4809 39.1255 13.529 41.1443 13.529 43.4585V47.6663H14.158H14.7871L14.7315 45.8188C14.6971 44.6733 14.7414 43.993 14.848 44.0285C14.9424 44.0602 15.2274 44.8719 15.4812 45.8323L15.9426 47.5784L16.5793 47.6324L17.216 47.6864L16.7246 45.8601L16.2331 44.0336L16.7339 43.7471L17.2349 43.4605V41.3511C17.2349 38.7244 17.2081 38.6942 14.8827 38.6942C13.5255 38.6942 13.3293 38.7316 13.4219 38.9725ZM14.6168 42.5645L14.5582 41.3327L14.4996 40.1007L15.2496 40.1012L15.9996 40.1016V41.333V42.5645H15.3082H14.6168Z" fill="#00DBC3"/>
<path fill-rule="evenodd" clip-rule="evenodd" d="M18.5471 38.8518C18.6008 38.9385 18.407 40.9163 18.1164 43.2469C17.8257 45.5776 17.5878 47.5699 17.5878 47.6744C17.5878 47.783 17.834 47.8408 18.1614 47.8093C18.6849 47.759 18.7397 47.6969 18.7896 47.0946C18.8439 46.4399 18.8505 46.4348 19.6245 46.4348C20.3321 46.4348 20.4145 46.4799 20.5109 46.9186C20.5695 47.1846 20.6478 47.5015 20.6852 47.6223C20.7701 47.897 21.8231 47.9154 21.8231 47.6424C21.8231 47.1521 20.7415 38.9758 20.6591 38.8428C20.6085 38.761 20.0905 38.6942 19.5082 38.6942C18.9258 38.6942 18.4933 38.7651 18.5471 38.8518ZM20.2359 44.8075C20.2352 44.9344 20.0108 45.0274 19.7055 45.0274C19.6773 45.0274 19.6505 45.0277 19.6249 45.0279L19.6238 45.0279C19.4751 45.0293 19.3704 45.0303 19.3025 44.9809C19.1409 44.8634 19.1878 44.4607 19.3466 43.0993L19.3482 43.0852L19.3611 42.9751C19.3683 42.9134 19.3756 42.8498 19.3832 42.7844C19.4983 41.7927 19.6434 40.9812 19.7055 40.9812C19.8009 40.9812 20.2389 44.1404 20.2359 44.8075Z" fill="#00DBC3"/>
<path d="M22.1377 43.1801L22.1877 47.6663H22.7995H23.4113V45.9588V44.2513L24.2376 45.9588L25.0636 47.6663H25.7248H26.3861L25.3306 45.4502L24.2751 43.2339L25.3371 41.0442C26.4409 38.7677 26.454 38.5875 25.5058 38.7242C25.1949 38.7691 24.9155 39.1597 24.2693 40.4534L23.4346 42.1247L23.423 40.4094L23.4113 38.6942L22.7496 38.694H22.0878L22.1377 43.1801Z" fill="#00DBC3"/>
<path fill-rule="evenodd" clip-rule="evenodd" d="M27.2082 42.8724C26.5588 48.1779 26.5553 47.7427 27.2495 47.8093C27.8363 47.8658 27.9104 47.7279 27.8705 46.6547C27.8651 46.508 28.146 46.4348 28.7144 46.4348H29.5664L29.6213 47.0946C29.6712 47.6969 29.7259 47.759 30.2495 47.8093C30.966 47.8783 30.9633 48.1675 30.2936 42.9163C30.0037 40.6425 29.766 38.7622 29.7653 38.7381C29.7647 38.714 29.3042 38.6942 28.7419 38.6942H27.7196L27.2082 42.8724ZM28.2363 44.9703C28.1583 44.8925 28.3976 42.7619 28.6548 41.2451C28.7557 40.6499 28.8164 40.8805 29.0486 42.7404L29.3232 44.9395L28.8208 44.996C28.5446 45.0269 28.2815 45.0153 28.2363 44.9703Z" fill="#00DBC3"/>
<path fill-rule="evenodd" clip-rule="evenodd" d="M31.2453 38.9725C31.3043 39.1255 31.3524 41.1443 31.3524 43.4585V47.6663H31.8818H32.4112V45.8045C32.4112 43.4311 32.6722 43.4392 33.3045 45.8323L33.766 47.5784L34.4008 47.6324L35.0355 47.6862L34.5315 45.8291C34.2545 44.8075 34.1008 43.9719 34.1901 43.9719C34.2794 43.9719 34.5112 43.8136 34.7053 43.62C35.0172 43.3092 35.0583 43.0337 35.0583 41.2551C35.0583 38.7381 35.0179 38.6942 32.7061 38.6942C31.3489 38.6942 31.1527 38.7316 31.2453 38.9725ZM32.4402 42.5645L32.3816 41.3327L32.323 40.1007L33.073 40.1012L33.823 40.1016V41.333V42.5645H33.1316H32.4402Z" fill="#00DBC3"/>
<path d="M35.4112 43.1711V47.6663H36.0248H36.6384L36.6866 44.5437L36.7347 41.421L37.3515 43.752C37.6907 45.0341 38.0108 46.083 38.0629 46.083C38.1149 46.083 38.4329 45.0341 38.7696 43.752L39.3818 41.421L39.43 44.5437L39.4781 47.6663H40.0947H40.7113L40.6642 43.2242L40.6171 38.7821H39.7347H38.8524L38.4763 40.1895C38.0715 41.7048 38.0477 41.6977 37.5691 39.9256L37.2604 38.7821L36.3357 38.729L35.4112 38.6757V43.1711Z" fill="#00DBC3"/>
<path fill-rule="evenodd" clip-rule="evenodd" d="M42.0114 38.8419C42.0618 38.9232 41.8691 40.8827 41.5831 43.1961C41.2972 45.5097 41.0621 47.5064 41.0607 47.6334C41.0591 47.7886 41.2469 47.8465 41.6318 47.8093C42.1553 47.759 42.2101 47.6969 42.26 47.0946C42.3143 46.4399 42.3209 46.4348 43.0949 46.4348C43.8025 46.4348 43.8849 46.4799 43.9813 46.9186C44.1726 47.7888 44.2177 47.8422 44.7586 47.8422C45.0528 47.8422 45.293 47.783 45.2923 47.7103C45.288 47.2117 44.2112 38.9746 44.1341 38.8502C44.081 38.7643 43.5609 38.6942 42.9786 38.6942C42.3962 38.6942 41.9611 38.7607 42.0114 38.8419ZM43.7533 45.0274H43.1999C43.1645 45.0274 43.1311 45.0279 43.0997 45.0283C42.9507 45.0303 42.8458 45.0317 42.7773 44.9825C42.6139 44.8653 42.6583 44.4602 42.8085 43.0887C42.8218 42.9679 42.8358 42.8396 42.8506 42.7033C42.9632 41.6669 43.1106 40.8529 43.178 40.8946C43.2454 40.9361 43.3508 41.507 43.412 42.163C43.4732 42.8192 43.575 43.7321 43.6382 44.1918L43.7533 45.0274Z" fill="#00DBC3"/>
<path d="M33.3294 62.5708L22.8655 70.4146L22.3883 70.0659C22.1261 69.874 17.6231 66.7212 12.382 63.0597C7.14086 59.3982 2.57472 56.2032 2.23502 55.9601C0.429211 54.6671 3.28166 57.0005 12.601 64.44L22.8786 72.6445L32.4538 64.5349C42.5626 55.9731 44.0238 54.7186 43.8817 54.7239C43.8332 54.7256 39.0848 58.2568 33.3294 62.5708Z" fill="#00DBC3"/>
</svg>
