<svg style="display: none;" aria-hidden="true" xmlns="http://www.w3.org/2000/svg" xmlns:xlink="http://www.w3.org/1999/xlink"><symbol viewBox="0 0 32 32" fill="none" id="facebook" xmlns="http://www.w3.org/2000/svg">
<path d="M16 28C22.6274 28 28 22.6274 28 16C28 9.37258 22.6274 4 16 4C9.37258 4 4 9.37258 4 16C4 22.6274 9.37258 28 16 28Z" stroke-width="2" stroke-linecap="round" stroke-linejoin="round"/>
<path d="M21 11H19C18.6056 10.9984 18.2147 11.0748 17.85 11.225C17.4853 11.3752 17.1539 11.5961 16.875 11.875C16.5961 12.1539 16.3752 12.4853 16.225 12.85C16.0748 13.2147 15.9984 13.6056 16 14V28" stroke-width="2" stroke-linecap="round" stroke-linejoin="round"/>
<path d="M12 18H20" stroke-width="2" stroke-linecap="round" stroke-linejoin="round"/>
</symbol><symbol viewBox="0 0 32 32" fill="none" id="instagram" xmlns="http://www.w3.org/2000/svg">
<path d="M16 21C18.7614 21 21 18.7614 21 16C21 13.2386 18.7614 11 16 11C13.2386 11 11 13.2386 11 16C11 18.7614 13.2386 21 16 21Z" stroke-width="2" stroke-miterlimit="10"/>
<path d="M21.5 4.5H10.5C7.18629 4.5 4.5 7.18629 4.5 10.5V21.5C4.5 24.8137 7.18629 27.5 10.5 27.5H21.5C24.8137 27.5 27.5 24.8137 27.5 21.5V10.5C27.5 7.18629 24.8137 4.5 21.5 4.5Z" stroke-width="2" stroke-linecap="round" stroke-linejoin="round"/>
<path d="M22.5 11C23.3284 11 24 10.3284 24 9.5C24 8.67157 23.3284 8 22.5 8C21.6716 8 21 8.67157 21 9.5C21 10.3284 21.6716 11 22.5 11Z" fill="black"/>
</symbol><symbol viewBox="0 0 25 24" fill="none" id="logout" xmlns="http://www.w3.org/2000/svg">
<path d="M16.8125 8.0625L20.75 12L16.8125 15.9375" stroke-width="2" stroke-linecap="round" stroke-linejoin="round"/>
<path d="M10.25 12H20.75" stroke-width="2" stroke-linecap="round" stroke-linejoin="round"/>
<path d="M10.25 20.25H5C4.80109 20.25 4.61032 20.171 4.46967 20.0303C4.32902 19.8897 4.25 19.6989 4.25 19.5V4.5C4.25 4.30109 4.32902 4.11032 4.46967 3.96967C4.61032 3.82902 4.80109 3.75 5 3.75H10.25" stroke-width="2" stroke-linecap="round" stroke-linejoin="round"/>
</symbol><symbol viewBox="0 0 28 28" fill="none" id="mail" xmlns="http://www.w3.org/2000/svg">
<path d="M24.5 6.125L14 15.75L3.5 6.125" stroke-width="1.3" stroke-linecap="round" stroke-linejoin="round"/>
<path d="M3.5 6.125H24.5V21C24.5 21.2321 24.4078 21.4546 24.2437 21.6187C24.0796 21.7828 23.8571 21.875 23.625 21.875H4.375C4.14294 21.875 3.92038 21.7828 3.75628 21.6187C3.59219 21.4546 3.5 21.2321 3.5 21V6.125Z" stroke-width="1.3" stroke-linecap="round" stroke-linejoin="round"/>
<path d="M12.0859 14L3.77344 21.6234" stroke-width="1.3" stroke-linecap="round" stroke-linejoin="round"/>
<path d="M24.2266 21.6234L15.9141 14" stroke-width="1.3" stroke-linecap="round" stroke-linejoin="round"/>
</symbol><symbol viewBox="0 0 32 32" fill="none" id="telegram" xmlns="http://www.w3.org/2000/svg">
<path d="M11 16.8625L22.2375 26.75C22.3674 26.865 22.5249 26.9442 22.6947 26.9799C22.8644 27.0156 23.0405 27.0065 23.2057 26.9535C23.3708 26.9006 23.5194 26.8056 23.6367 26.6779C23.7541 26.5501 23.8362 26.3941 23.875 26.225L28.575 5.70004C28.6144 5.52327 28.6051 5.33913 28.548 5.16726C28.4909 4.99538 28.3883 4.84224 28.2509 4.72417C28.1136 4.6061 27.9468 4.52753 27.7683 4.49686C27.5898 4.4662 27.4064 4.48457 27.2375 4.55004L4.16251 13.6125C3.23751 13.975 3.36251 15.325 4.33751 15.525L11 16.8625Z" stroke-width="2" stroke-linecap="round" stroke-linejoin="round"/>
<path d="M11 16.8625L28.0125 4.57495" stroke-width="2" stroke-linecap="round" stroke-linejoin="round"/>
<path d="M16.6125 21.8L12.7125 25.7001C12.5734 25.8413 12.3954 25.9381 12.2011 25.9779C12.0069 26.0178 11.8052 25.9991 11.6216 25.924C11.4381 25.849 11.281 25.7211 11.1703 25.5566C11.0596 25.3921 11.0003 25.1983 11 25V16.8625" stroke-width="2" stroke-linecap="round" stroke-linejoin="round"/>
</symbol><symbol viewBox="0 0 32 32" fill="none" id="twitter" xmlns="http://www.w3.org/2000/svg">
<path d="M15.9997 11C15.9997 8.24997 18.3122 5.96247 21.0622 5.99997C22.0253 6.01108 22.9646 6.30011 23.7673 6.83231C24.5701 7.36451 25.202 8.11722 25.5872 8.99997H29.9997L25.9622 13.0375C25.7016 17.0932 23.9063 20.8974 20.9412 23.6768C17.9761 26.4562 14.0638 28.002 9.9997 28C5.9997 28 4.9997 26.5 4.9997 26.5C4.9997 26.5 8.9997 25 10.9997 22C10.9997 22 2.9997 18 4.9997 6.99997C4.9997 6.99997 9.9997 12 15.9997 13V11Z" stroke-width="2" stroke-linecap="round" stroke-linejoin="round"/>
</symbol><symbol viewBox="0 0 24 24" fill="none" id="user" xmlns="http://www.w3.org/2000/svg">
<path d="M12 15C15.3137 15 18 12.3137 18 9C18 5.68629 15.3137 3 12 3C8.68629 3 6 5.68629 6 9C6 12.3137 8.68629 15 12 15Z" stroke="white" stroke-width="2" stroke-miterlimit="10"/>
<path d="M2.90625 20.2499C3.82775 18.6534 5.15328 17.3277 6.74958 16.406C8.34588 15.4843 10.1567 14.999 12 14.999C13.8433 14.999 15.6541 15.4843 17.2504 16.406C18.8467 17.3277 20.1722 18.6534 21.0938 20.2499" stroke="white" stroke-width="2" stroke-linecap="round" stroke-linejoin="round"/>
</symbol></svg>