<svg width="823" height="519" viewBox="0 0 823 519" fill="none" xmlns="http://www.w3.org/2000/svg">
<path d="M141.453 414.312C141.453 442.603 118.306 465.75 90.0156 465.75C61.725 465.75 38.5781 442.603 38.5781 414.312C38.5781 398.881 43.7219 386.022 54.0094 378.306C61.725 368.019 74.5844 362.875 90.0156 362.875C118.306 362.875 141.453 386.022 141.453 414.312Z" fill="#00DBC3"/>
<path d="M192.891 311.438C164.6 311.438 141.453 288.291 141.453 260C141.453 244.569 146.597 231.709 156.884 223.994C164.6 213.706 177.459 208.562 192.891 208.562" fill="#00DBC3"/>
<path d="M810.14 221.422V169.984H779.278C776.706 164.841 774.134 159.697 771.562 151.981L792.137 131.406L756.131 95.4L735.556 115.975C730.412 113.403 725.268 110.831 717.553 108.259V79.9688H678.975V159.697C686.69 157.125 689.262 157.125 694.406 157.125C714.981 157.125 732.984 175.128 732.984 195.703C732.984 216.278 714.981 234.281 694.406 234.281C689.262 234.281 686.69 234.281 681.546 231.709V311.438H720.125V280.575C725.268 278.003 730.412 275.431 738.128 272.859L758.703 293.434L794.709 257.428L774.134 236.853C776.706 231.709 779.278 226.566 781.85 218.85H810.14V221.422Z" fill="#00DBC3"/>
<path d="M655.828 388.594H218.609C203.178 388.594 192.891 378.306 192.891 362.875V54.25C192.891 38.8187 203.178 28.5312 218.609 28.5312H655.828C671.259 28.5312 681.547 38.8187 681.547 54.25V362.875C681.547 378.306 671.259 388.594 655.828 388.594Z" fill="white"/>
<path d="M372.922 388.594H501.516V491.469H372.922V388.594Z" fill="#494B56"/>
<path d="M192.891 362.875C192.891 378.306 203.178 388.594 218.609 388.594H655.828C671.259 388.594 681.547 378.306 681.547 362.875V311.438H192.891V362.875Z" fill="#5A5D70"/>
<path d="M347.203 247.141H270.047C267.475 247.141 262.331 244.569 259.759 241.997C257.188 239.425 257.188 236.853 257.188 231.709L277.763 128.834C280.334 121.119 285.478 115.975 293.194 118.547C300.909 121.119 306.053 126.262 303.481 133.978L288.05 221.422H349.775C357.491 221.422 362.634 226.566 362.634 234.281C362.634 241.997 354.919 247.141 347.203 247.141V247.141Z" fill="#353844"/>
<path d="M321.484 272.859C313.769 272.859 308.625 267.716 308.625 260V182.844C308.625 175.128 313.769 169.984 321.484 169.984C329.2 169.984 334.344 175.128 334.344 182.844V260C334.344 267.716 329.2 272.859 321.484 272.859Z" fill="#353844"/>
<path d="M655.828 401.453H218.609C198.034 401.453 180.031 383.45 180.031 362.875V54.25C180.031 33.675 198.034 15.6719 218.609 15.6719H655.828C676.403 15.6719 694.406 33.675 694.406 54.25V362.875C694.406 383.45 676.403 401.453 655.828 401.453ZM218.609 41.3906C210.894 41.3906 205.75 46.5344 205.75 54.25V362.875C205.75 370.591 210.894 375.734 218.609 375.734H655.828C663.544 375.734 668.688 370.591 668.688 362.875V54.25C668.688 46.5344 663.544 41.3906 655.828 41.3906H218.609ZM604.391 504.328H270.047C262.331 504.328 257.188 499.184 257.188 491.469C257.188 483.753 262.331 478.609 270.047 478.609H604.391C612.106 478.609 617.25 483.753 617.25 491.469C617.25 499.184 612.106 504.328 604.391 504.328Z" fill="#353844"/>
<path d="M681.547 324.297H192.891C185.175 324.297 180.031 319.153 180.031 311.438C180.031 303.722 185.175 298.578 192.891 298.578H681.547C689.263 298.578 694.406 303.722 694.406 311.438C694.406 319.153 689.263 324.297 681.547 324.297ZM501.516 504.328H372.922C365.206 504.328 360.062 499.184 360.062 491.469V388.594C360.062 380.878 365.206 375.734 372.922 375.734H501.516C509.231 375.734 514.375 380.878 514.375 388.594V491.469C514.375 499.184 509.231 504.328 501.516 504.328ZM385.781 478.609H488.656V401.453H385.781V478.609ZM167.172 427.172H141.453C133.737 427.172 128.594 422.028 128.594 414.312C128.594 406.597 133.737 401.453 141.453 401.453H167.172C174.888 401.453 180.031 406.597 180.031 414.312C180.031 422.028 174.888 427.172 167.172 427.172ZM38.5781 427.172H12.8594C5.14375 427.172 0 422.028 0 414.312C0 406.597 5.14375 401.453 12.8594 401.453H38.5781C46.2938 401.453 51.4375 406.597 51.4375 414.312C51.4375 422.028 46.2938 427.172 38.5781 427.172ZM90.0156 375.734C82.3 375.734 77.1562 370.591 77.1562 362.875V337.156C77.1562 329.441 82.3 324.297 90.0156 324.297C97.7313 324.297 102.875 329.441 102.875 337.156V362.875C102.875 370.591 97.7313 375.734 90.0156 375.734ZM90.0156 504.328C82.3 504.328 77.1562 499.184 77.1562 491.469V465.75C77.1562 458.034 82.3 452.891 90.0156 452.891C97.7313 452.891 102.875 458.034 102.875 465.75V491.469C102.875 499.184 97.7313 504.328 90.0156 504.328ZM54.0094 391.166C51.4375 391.166 46.2938 391.166 43.7219 388.594L25.7188 368.019C20.575 362.875 20.575 355.159 25.7188 350.016C30.8625 344.872 38.5781 344.872 43.7219 350.016L61.725 368.019C66.8688 373.163 66.8688 380.878 61.725 386.022C59.1531 388.594 56.5812 391.166 54.0094 391.166V391.166ZM144.025 481.181C141.453 481.181 136.309 481.181 133.737 478.609L115.734 460.606C110.591 455.462 110.591 447.747 115.734 442.603C120.878 437.459 128.594 437.459 133.737 442.603L154.312 460.606C159.456 465.75 159.456 473.466 154.312 478.609C151.741 481.181 146.597 481.181 144.025 481.181V481.181ZM126.022 391.166C123.45 391.166 118.306 391.166 115.734 388.594C110.591 383.45 110.591 375.734 115.734 370.591L133.737 352.588C138.881 347.444 146.597 347.444 151.741 352.588C156.884 357.731 156.884 365.447 151.741 370.591L133.737 388.594C133.737 388.594 128.594 391.166 126.022 391.166ZM36.0062 481.181C33.4344 481.181 28.2906 481.181 25.7188 478.609C20.575 473.466 20.575 465.75 25.7188 460.606L43.7219 442.603C48.8656 437.459 56.5813 437.459 61.725 442.603C66.8688 447.747 66.8688 455.462 61.725 460.606L43.7219 478.609C41.15 481.181 38.5781 481.181 36.0062 481.181V481.181Z" fill="#353844"/>
<path d="M90.0156 427.172C97.1177 427.172 102.875 421.415 102.875 414.312C102.875 407.21 97.1177 401.453 90.0156 401.453C82.9136 401.453 77.1562 407.21 77.1562 414.312C77.1562 421.415 82.9136 427.172 90.0156 427.172Z" fill="#353844"/>
<path d="M90.0156 478.609C54.0094 478.609 25.7188 450.319 25.7188 414.313C25.7188 396.309 33.4344 380.878 43.7219 368.019C56.5812 355.159 72.0125 350.016 90.0156 350.016C126.022 350.016 154.312 378.306 154.312 414.313C154.312 450.319 126.022 478.609 90.0156 478.609ZM90.0156 375.734C79.7281 375.734 69.4406 380.878 61.725 386.022C56.5813 393.738 51.4375 404.025 51.4375 414.313C51.4375 434.888 69.4406 452.891 90.0156 452.891C110.591 452.891 128.594 434.888 128.594 414.313C128.594 393.738 110.591 375.734 90.0156 375.734ZM141.453 272.859H115.734C108.019 272.859 102.875 267.716 102.875 260C102.875 252.284 108.019 247.141 115.734 247.141H141.453C149.169 247.141 154.312 252.284 154.312 260C154.312 267.716 149.169 272.859 141.453 272.859ZM156.884 236.853C154.312 236.853 149.169 236.853 146.597 234.281L128.594 213.706C123.45 208.563 123.45 200.847 128.594 195.703C133.737 190.559 141.453 190.559 146.597 195.703L164.6 213.706C169.744 218.85 169.744 226.566 164.6 231.709C162.028 234.281 159.456 236.853 156.884 236.853V236.853ZM138.881 326.869C136.309 326.869 131.166 326.869 128.594 324.297C123.45 319.153 123.45 311.438 128.594 306.294L146.597 288.291C151.741 283.147 159.456 283.147 164.6 288.291C169.744 293.434 169.744 301.15 164.6 306.294L146.597 324.297C144.025 326.869 141.453 326.869 138.881 326.869Z" fill="#353844"/>
<path d="M192.891 324.297C156.884 324.297 128.594 296.006 128.594 260C128.594 241.997 136.309 226.566 146.597 213.706C159.456 200.847 174.888 195.703 192.891 195.703V221.422C182.603 221.422 172.316 226.566 164.6 231.709C159.456 239.425 154.312 249.712 154.312 260C154.312 280.575 172.316 298.578 192.891 298.578V324.297ZM720.125 324.297H681.547C673.831 324.297 668.688 319.153 668.688 311.438V79.9688C668.688 72.2531 673.831 67.1094 681.547 67.1094H720.125C727.841 67.1094 732.984 72.2531 732.984 79.9688V100.544L748.416 85.1125C753.559 79.9687 761.275 79.9687 766.419 85.1125L802.425 121.119C807.569 126.263 807.569 133.978 802.425 139.122L789.566 157.125H810.141C817.856 157.125 823 162.269 823 169.984V221.422C823 229.138 817.856 234.281 810.141 234.281H789.566L804.997 249.713C810.141 254.856 810.141 262.572 804.997 267.716L768.991 303.722C763.847 308.866 756.131 308.866 750.988 303.722L735.556 288.291V311.438C732.984 319.153 727.841 324.297 720.125 324.297V324.297ZM694.406 298.578H707.266V280.575C707.266 275.431 709.837 270.287 714.981 267.716C720.125 265.144 725.269 265.144 730.412 262.572C735.556 260 740.7 260 745.844 265.144L758.703 278.003L776.706 260L763.847 247.141C758.703 241.997 758.703 236.853 761.275 231.709C763.847 226.566 766.419 221.422 766.419 216.278C768.991 211.134 774.134 205.991 779.278 205.991H797.281V180.272H779.278C774.134 180.272 768.991 177.7 766.419 169.984C763.847 164.841 763.847 159.697 761.275 154.553C758.703 149.409 758.703 144.266 763.847 139.122L776.706 126.263L758.703 108.259L745.844 126.263C740.7 131.406 735.556 131.406 730.412 128.834C725.269 126.262 720.125 123.691 714.981 123.691C709.837 121.119 707.266 115.975 707.266 110.831V92.8281H694.406V298.578V298.578Z" fill="#353844"/>
<path d="M694.406 247.141C689.262 247.141 684.119 247.141 676.403 244.569C671.259 241.997 668.688 236.853 668.688 231.709V159.697C668.688 154.553 671.259 149.409 676.403 146.838C712.409 133.978 745.844 162.269 745.844 195.703C745.844 223.994 722.697 247.141 694.406 247.141ZM694.406 169.984V221.422C709.838 221.422 720.125 211.134 720.125 195.703C720.125 180.272 709.838 169.984 694.406 169.984ZM450.078 272.859H424.359C403.784 272.859 385.781 254.856 385.781 234.281V157.125C385.781 136.55 403.784 118.547 424.359 118.547H450.078C470.653 118.547 488.656 136.55 488.656 157.125V234.281C488.656 254.856 470.653 272.859 450.078 272.859ZM424.359 144.266C416.644 144.266 411.5 149.409 411.5 157.125V234.281C411.5 241.997 416.644 247.141 424.359 247.141H450.078C457.794 247.141 462.938 241.997 462.938 234.281V157.125C462.938 149.409 457.794 144.266 450.078 144.266H424.359Z" fill="#353844"/>
<path d="M523.511 136.427C521.161 131.445 522.841 125.386 527.88 123.162C530.782 121.882 533.778 120.827 536.868 119.997C543.068 118.332 550.176 117.5 558.19 117.5C565.146 117.5 571.422 118.484 577.017 120.451C582.612 122.418 587.376 125.142 591.307 128.623C595.39 131.952 598.49 135.886 600.607 140.426C602.876 144.966 604.01 149.884 604.01 155.181C604.01 164.109 601.666 171.373 596.978 176.972C592.29 182.572 586.695 186.657 580.193 189.23C588.812 191.046 595.768 195.056 601.061 201.261C606.354 207.314 609 214.653 609 223.279C609 230.543 607.639 236.823 604.917 242.12C602.195 247.416 598.415 251.805 593.576 255.285C588.888 258.766 583.293 261.338 576.79 263.003C570.288 264.668 563.332 265.5 555.922 265.5C548.21 265.5 540.876 264.743 533.92 263.23C530.631 262.499 527.537 261.626 524.637 260.612C519.477 258.808 517.165 253.095 518.775 247.872V247.872C520.794 241.325 528.081 238.107 534.59 240.247C535.125 240.423 535.657 240.593 536.188 240.758C540.573 241.968 545.639 242.574 551.385 242.574C559.249 242.574 565.6 240.909 570.439 237.58C575.429 234.099 577.924 229.105 577.924 222.598C577.924 216.242 575.656 211.324 571.12 207.844C566.583 204.212 559.929 202.396 551.159 202.396H545.95C539.807 202.396 534.827 197.416 534.827 191.273V191.273C534.827 185.13 539.807 180.15 545.95 180.15H546.622C555.09 180.15 561.668 178.334 566.356 174.702C571.044 170.919 573.388 165.623 573.388 158.813C573.388 152.911 571.346 148.371 567.263 145.193C563.332 141.864 558.493 140.199 552.746 140.199C548.663 140.199 544.656 140.805 540.724 142.015C540.558 142.069 540.391 142.124 540.223 142.18C533.882 144.315 526.365 142.479 523.511 136.427V136.427Z" fill="#353844"/>
</svg>
