<svg width="823" height="525" viewBox="0 0 823 525" fill="none" xmlns="http://www.w3.org/2000/svg">
<path d="M141.453 422.312C141.453 450.603 118.306 473.75 90.0156 473.75C61.725 473.75 38.5781 450.603 38.5781 422.312C38.5781 406.881 43.7219 394.022 54.0094 386.306C61.725 376.019 74.5844 370.875 90.0156 370.875C118.306 370.875 141.453 394.022 141.453 422.312Z" fill="#00DBC3"/>
<path d="M192.891 319.438C164.6 319.438 141.453 296.291 141.453 268C141.453 252.569 146.597 239.709 156.884 231.994C164.6 221.706 177.459 216.562 192.891 216.562" fill="#00DBC3"/>
<path d="M810.14 229.422V177.984H779.278C776.706 172.841 774.134 167.697 771.562 159.981L792.137 139.406L756.131 103.4L735.556 123.975C730.412 121.403 725.268 118.831 717.553 116.259V87.9688H678.975V167.697C686.69 165.125 689.262 165.125 694.406 165.125C714.981 165.125 732.984 183.128 732.984 203.703C732.984 224.278 714.981 242.281 694.406 242.281C689.262 242.281 686.69 242.281 681.546 239.709V319.438H720.125V288.575C725.268 286.003 730.412 283.431 738.128 280.859L758.703 301.434L794.709 265.428L774.134 244.853C776.706 239.709 779.278 234.566 781.85 226.85H810.14V229.422Z" fill="#00DBC3"/>
<path d="M655.828 396.594H218.609C203.178 396.594 192.891 386.306 192.891 370.875V62.25C192.891 46.8187 203.178 36.5312 218.609 36.5312H655.828C671.259 36.5312 681.547 46.8187 681.547 62.25V370.875C681.547 386.306 671.259 396.594 655.828 396.594Z" fill="white"/>
<path d="M372.922 396.594H501.516V499.469H372.922V396.594Z" fill="#494B56"/>
<path d="M192.891 370.875C192.891 386.306 203.178 396.594 218.609 396.594H655.828C671.259 396.594 681.547 386.306 681.547 370.875V319.438H192.891V370.875Z" fill="#5A5D70"/>
<path d="M347.203 255.141H270.047C267.475 255.141 262.331 252.569 259.759 249.997C257.188 247.425 257.188 244.853 257.188 239.709L277.763 136.834C280.334 129.119 285.478 123.975 293.194 126.547C300.909 129.119 306.053 134.262 303.481 141.978L288.05 229.422H349.775C357.491 229.422 362.634 234.566 362.634 242.281C362.634 249.997 354.919 255.141 347.203 255.141Z" fill="#353844"/>
<path d="M321.484 280.859C313.769 280.859 308.625 275.716 308.625 268V190.844C308.625 183.128 313.769 177.984 321.484 177.984C329.2 177.984 334.344 183.128 334.344 190.844V268C334.344 275.716 329.2 280.859 321.484 280.859ZM604.391 255.141H527.234C524.662 255.141 519.519 252.569 516.947 249.997C514.375 247.425 514.375 244.853 514.375 239.709L534.95 136.834C537.522 129.119 542.666 123.975 550.381 126.547C558.097 129.119 563.241 134.262 560.669 141.978L545.238 229.422H606.962C614.678 229.422 619.822 234.566 619.822 242.281C619.822 249.997 612.106 255.141 604.391 255.141Z" fill="#353844"/>
<path d="M578.672 280.859C570.956 280.859 565.812 275.716 565.812 268V190.844C565.812 183.128 570.956 177.984 578.672 177.984C586.388 177.984 591.531 183.128 591.531 190.844V268C591.531 275.716 586.388 280.859 578.672 280.859Z" fill="#353844"/>
<path d="M655.828 409.453H218.609C198.034 409.453 180.031 391.45 180.031 370.875V62.25C180.031 41.675 198.034 23.6719 218.609 23.6719H655.828C676.403 23.6719 694.406 41.675 694.406 62.25V370.875C694.406 391.45 676.403 409.453 655.828 409.453ZM218.609 49.3906C210.894 49.3906 205.75 54.5344 205.75 62.25V370.875C205.75 378.591 210.894 383.734 218.609 383.734H655.828C663.544 383.734 668.688 378.591 668.688 370.875V62.25C668.688 54.5344 663.544 49.3906 655.828 49.3906H218.609ZM604.391 512.328H270.047C262.331 512.328 257.188 507.184 257.188 499.469C257.188 491.753 262.331 486.609 270.047 486.609H604.391C612.106 486.609 617.25 491.753 617.25 499.469C617.25 507.184 612.106 512.328 604.391 512.328Z" fill="#353844"/>
<path d="M681.547 332.297H192.891C185.175 332.297 180.031 327.153 180.031 319.438C180.031 311.722 185.175 306.578 192.891 306.578H681.547C689.263 306.578 694.406 311.722 694.406 319.438C694.406 327.153 689.263 332.297 681.547 332.297ZM501.516 512.328H372.922C365.206 512.328 360.062 507.184 360.062 499.469V396.594C360.062 388.878 365.206 383.734 372.922 383.734H501.516C509.231 383.734 514.375 388.878 514.375 396.594V499.469C514.375 507.184 509.231 512.328 501.516 512.328ZM385.781 486.609H488.656V409.453H385.781V486.609ZM167.172 435.172H141.453C133.738 435.172 128.594 430.028 128.594 422.312C128.594 414.597 133.738 409.453 141.453 409.453H167.172C174.887 409.453 180.031 414.597 180.031 422.312C180.031 430.028 174.887 435.172 167.172 435.172ZM38.5781 435.172H12.8594C5.14375 435.172 0 430.028 0 422.312C0 414.597 5.14375 409.453 12.8594 409.453H38.5781C46.2938 409.453 51.4375 414.597 51.4375 422.312C51.4375 430.028 46.2938 435.172 38.5781 435.172ZM90.0156 383.734C82.3 383.734 77.1562 378.591 77.1562 370.875V345.156C77.1562 337.441 82.3 332.297 90.0156 332.297C97.7312 332.297 102.875 337.441 102.875 345.156V370.875C102.875 378.591 97.7312 383.734 90.0156 383.734ZM90.0156 512.328C82.3 512.328 77.1562 507.184 77.1562 499.469V473.75C77.1562 466.034 82.3 460.891 90.0156 460.891C97.7312 460.891 102.875 466.034 102.875 473.75V499.469C102.875 507.184 97.7312 512.328 90.0156 512.328ZM54.0094 399.166C51.4375 399.166 46.2938 399.166 43.7219 396.594L25.7188 376.019C20.575 370.875 20.575 363.159 25.7188 358.016C30.8625 352.872 38.5781 352.872 43.7219 358.016L61.725 376.019C66.8688 381.163 66.8688 388.878 61.725 394.022C59.1531 396.594 56.5812 399.166 54.0094 399.166ZM144.025 489.181C141.453 489.181 136.309 489.181 133.737 486.609L115.734 468.606C110.591 463.462 110.591 455.747 115.734 450.603C120.878 445.459 128.594 445.459 133.737 450.603L154.312 468.606C159.456 473.75 159.456 481.466 154.312 486.609C151.741 489.181 146.597 489.181 144.025 489.181ZM126.022 399.166C123.45 399.166 118.306 399.166 115.734 396.594C110.591 391.45 110.591 383.734 115.734 378.591L133.737 360.588C138.881 355.444 146.597 355.444 151.741 360.588C156.884 365.731 156.884 373.447 151.741 378.591L133.737 396.594C133.737 396.594 128.594 399.166 126.022 399.166ZM36.0062 489.181C33.4344 489.181 28.2906 489.181 25.7188 486.609C20.575 481.466 20.575 473.75 25.7188 468.606L43.7219 450.603C48.8656 445.459 56.5813 445.459 61.725 450.603C66.8688 455.747 66.8688 463.462 61.725 468.606L43.7219 486.609C41.15 489.181 38.5781 489.181 36.0062 489.181Z" fill="#353844"/>
<path d="M90.0156 435.172C97.1177 435.172 102.875 429.415 102.875 422.312C102.875 415.21 97.1177 409.453 90.0156 409.453C82.9136 409.453 77.1562 415.21 77.1562 422.312C77.1562 429.415 82.9136 435.172 90.0156 435.172Z" fill="#353844"/>
<path d="M90.0156 486.609C54.0094 486.609 25.7188 458.319 25.7188 422.313C25.7188 404.309 33.4344 388.878 43.7219 376.019C56.5812 363.159 72.0125 358.016 90.0156 358.016C126.022 358.016 154.312 386.306 154.312 422.313C154.312 458.319 126.022 486.609 90.0156 486.609ZM90.0156 383.734C79.7281 383.734 69.4406 388.878 61.725 394.022C56.5812 401.738 51.4375 412.025 51.4375 422.313C51.4375 442.888 69.4406 460.891 90.0156 460.891C110.591 460.891 128.594 442.888 128.594 422.313C128.594 401.738 110.591 383.734 90.0156 383.734ZM141.453 280.859H115.734C108.019 280.859 102.875 275.716 102.875 268C102.875 260.284 108.019 255.141 115.734 255.141H141.453C149.169 255.141 154.312 260.284 154.312 268C154.312 275.716 149.169 280.859 141.453 280.859ZM156.884 244.853C154.312 244.853 149.169 244.853 146.597 242.281L128.594 221.706C123.45 216.563 123.45 208.847 128.594 203.703C133.737 198.559 141.453 198.559 146.597 203.703L164.6 221.706C169.744 226.85 169.744 234.566 164.6 239.709C162.028 242.281 159.456 244.853 156.884 244.853ZM138.881 334.869C136.309 334.869 131.166 334.869 128.594 332.297C123.45 327.153 123.45 319.438 128.594 314.294L146.597 296.291C151.741 291.147 159.456 291.147 164.6 296.291C169.744 301.434 169.744 309.15 164.6 314.294L146.597 332.297C144.025 334.869 141.453 334.869 138.881 334.869Z" fill="#353844"/>
<path d="M192.891 332.297C156.884 332.297 128.594 304.006 128.594 268C128.594 249.997 136.309 234.566 146.597 221.706C159.456 208.847 174.888 203.703 192.891 203.703V229.422C182.603 229.422 172.316 234.566 164.6 239.709C159.456 247.425 154.312 257.712 154.312 268C154.312 288.575 172.316 306.578 192.891 306.578V332.297ZM720.125 332.297H681.547C673.831 332.297 668.688 327.153 668.688 319.438V87.9688C668.688 80.2531 673.831 75.1094 681.547 75.1094H720.125C727.841 75.1094 732.984 80.2531 732.984 87.9688V108.544L748.416 93.1125C753.559 87.9687 761.275 87.9687 766.419 93.1125L802.425 129.119C807.569 134.263 807.569 141.978 802.425 147.122L789.566 165.125H810.141C817.856 165.125 823 170.269 823 177.984V229.422C823 237.137 817.856 242.281 810.141 242.281H789.566L804.997 257.713C810.141 262.856 810.141 270.572 804.997 275.716L768.991 311.722C763.847 316.866 756.131 316.866 750.988 311.722L735.556 296.291V319.438C732.984 327.153 727.841 332.297 720.125 332.297ZM694.406 306.578H707.266V288.575C707.266 283.431 709.837 278.287 714.981 275.716C720.125 273.144 725.269 273.144 730.412 270.572C735.556 268 740.7 268 745.844 273.144L758.703 286.003L776.706 268L763.847 255.141C758.703 249.997 758.703 244.853 761.275 239.709C763.847 234.566 766.419 229.422 766.419 224.278C768.991 219.134 774.134 213.991 779.278 213.991H797.281V188.272H779.278C774.134 188.272 768.991 185.7 766.419 177.984C763.847 172.841 763.847 167.697 761.275 162.553C758.703 157.409 758.703 152.266 763.847 147.122L776.706 134.263L758.703 116.259L745.844 134.263C740.7 139.406 735.556 139.406 730.412 136.834C725.269 134.262 720.125 131.691 714.981 131.691C709.837 129.119 707.266 123.975 707.266 118.831V100.828H694.406V306.578Z" fill="#353844"/>
<path d="M694.406 255.141C689.263 255.141 684.119 255.141 676.403 252.569C671.259 249.997 668.688 244.853 668.688 239.709V167.697C668.688 162.553 671.259 157.409 676.403 154.838C712.409 141.978 745.844 170.269 745.844 203.703C745.844 231.994 722.697 255.141 694.406 255.141ZM694.406 177.984V229.422C709.837 229.422 720.125 219.134 720.125 203.703C720.125 188.272 709.837 177.984 694.406 177.984ZM450.078 280.859H424.359C403.784 280.859 385.781 262.856 385.781 242.281V165.125C385.781 144.55 403.784 126.547 424.359 126.547H450.078C470.653 126.547 488.656 144.55 488.656 165.125V242.281C488.656 262.856 470.653 280.859 450.078 280.859ZM424.359 152.266C416.644 152.266 411.5 157.409 411.5 165.125V242.281C411.5 249.997 416.644 255.141 424.359 255.141H450.078C457.794 255.141 462.938 249.997 462.938 242.281V165.125C462.938 157.409 457.794 152.266 450.078 152.266H424.359Z" fill="#353844"/>
</svg>
