<svg width="262" height="261" viewBox="0 0 262 261" fill="none" xmlns="http://www.w3.org/2000/svg">
<path fill-rule="evenodd" clip-rule="evenodd" d="M158.458 2.96925C135.792 -2.06669 109.388 -0.321452 86.7348 7.71126C54.782 19.0412 27.1612 43.9908 12.7141 74.5731C9.26655 81.87 4.31699 96.6639 2.86718 104.004C-0.105098 119.05 -0.587002 131.821 1.26128 146.583C6.81461 190.949 33.9097 228.63 74.5117 248.455C80.0336 251.152 95.5163 256.484 101.998 257.921C124.781 262.976 149.523 261.733 171.509 254.43C205.674 243.082 233.583 218.294 248.981 185.62C252.604 177.931 258.206 159.868 259.427 151.938C263.669 124.373 259.711 97.6408 247.78 73.2943C234.772 46.7486 213.074 25.2572 186.477 12.5758C181.082 10.0033 164.449 4.30049 158.458 2.96925ZM156.797 18.1924C156.02 18.0647 153.496 17.5961 151.188 17.1515C144.671 15.895 132.329 15.0562 125.425 15.3999C108.808 16.227 93.4326 20.3745 78.183 28.1442C56.7895 39.0441 40.8941 54.6369 28.4858 76.8944C25.6607 81.9626 18.0009 104.193 17.0905 109.966C13.1671 134.852 16.1457 157.318 26.2388 178.97C36.9702 201.991 52.7862 218.975 75.572 231.944C82.238 235.738 104.118 243.279 111.605 244.363C130.284 247.067 147.373 245.888 164.307 240.725C172.044 238.367 184.411 232.804 191.118 228.664C209.585 217.266 224.832 200.389 234.485 180.66C237.21 175.091 242.032 161.086 243.311 155.026C248.918 128.459 245.451 102.46 233.053 78.0942C222.434 57.2254 207.128 41.3783 185.962 29.3419C181.767 26.9559 160.392 18.7849 156.797 18.1924ZM115.96 53.6092L113.848 59.7439L103.445 56.1621L93.0428 52.5803L89.5528 62.7159L86.0628 72.8516L93.2644 75.3313L100.466 77.811L87.4246 115.686L74.3831 153.562L67.1814 151.082L59.9798 148.602L56.4898 158.738L52.9998 168.874L63.4022 172.455L73.8045 176.037L71.6922 182.172L69.5798 188.307L79.7155 191.797L89.8511 195.287L91.9635 189.152L94.0758 183.017L101.544 185.589L109.013 188.16L106.9 194.295L104.788 200.43L114.657 203.828L124.526 207.226L126.703 200.904L128.88 194.581L133.126 195.679C143.762 198.428 155.267 197.638 163.599 193.586C171.893 189.553 176.645 184.025 179.899 174.624C181.843 169.007 182.577 162.403 181.782 157.68C180.694 151.219 176.568 144.825 169.604 138.81C168.524 137.877 168.608 137.82 172.009 137.173C179.401 135.766 185.36 132.088 188.985 126.694C191.501 122.95 194.366 114.282 194.656 109.534C195.389 97.5727 187.592 87.2926 172.944 80.9058L168.664 79.0394L170.841 72.7164L173.018 66.3939L163.149 62.9957L153.28 59.5976L151.168 65.7323L149.056 71.8671L141.587 69.2955L134.119 66.7239L136.231 60.5892L138.344 54.4544L128.208 50.9645L118.072 47.4745L115.96 53.6092ZM122.549 100.325L117.935 113.725L134.434 119.225L150.933 124.725L154.63 124.199C159.803 123.462 162.761 121.027 164.877 115.761C167.449 109.359 166.675 104.991 162.222 100.792C159.921 98.6207 159.398 98.3959 143.509 92.7422L127.163 86.9259L122.549 100.325ZM106.475 147.008L101.034 162.81L119.097 168.836C136.478 174.634 137.292 174.856 140.633 174.688C144.778 174.48 149.429 172.083 151.435 169.119C152.175 168.026 153.381 165.055 154.114 162.517C155.692 157.053 155.449 154.005 153.118 150.039C150.142 144.973 149.31 144.53 129.588 137.503L111.916 131.207L106.475 147.008Z" fill="white" fill-opacity="0.05"/>
</svg>
