<svg width="161" height="161" viewBox="0 0 161 161" fill="none" xmlns="http://www.w3.org/2000/svg">
<g opacity="0.05">
<path d="M75.9045 108.459C87.9369 110.258 99.1489 101.961 100.947 89.9286C102.745 77.8962 94.449 66.6842 82.4166 64.8859C70.3841 63.0877 59.1721 71.3841 57.3738 83.4166C55.5756 95.449 63.872 106.661 75.9045 108.459Z" stroke="white" stroke-width="10" stroke-linecap="round" stroke-linejoin="round"/>
<path d="M118.151 79.1358C123.228 79.8857 128.058 81.8115 132.258 84.7594C136.458 87.7074 139.911 91.596 142.342 96.115" stroke="white" stroke-width="10" stroke-linecap="round" stroke-linejoin="round"/>
<path d="M15.979 77.2303C19.6247 73.6193 24.0637 70.9102 28.942 69.319C33.8203 67.7278 39.003 67.2986 44.0766 68.0655" stroke="white" stroke-width="10" stroke-linecap="round" stroke-linejoin="round"/>
<path d="M41.6 123.378C45.3476 117.931 50.55 113.645 56.6144 111.01C62.6789 108.375 69.3615 107.496 75.9011 108.473C82.4408 109.45 88.5744 112.245 93.6034 116.538C98.6323 120.831 102.354 126.45 104.346 132.756" stroke="white" stroke-width="10" stroke-linecap="round" stroke-linejoin="round"/>
<path d="M44.0772 68.0658C40.7686 67.5747 37.6681 66.1523 35.138 63.9645C32.6078 61.7768 30.7525 58.9143 29.7888 55.7113C28.825 52.5083 28.7928 49.0972 29.6957 45.8765C30.5986 42.6559 32.3994 39.7587 34.8878 37.5235C37.3761 35.2883 40.4491 33.8074 43.7478 33.2539C47.0465 32.7003 50.4346 33.097 53.5163 34.3975C56.5979 35.6979 59.2458 37.8486 61.1506 40.598C63.0554 43.3475 64.1384 46.5823 64.273 49.9244" stroke="white" stroke-width="10" stroke-linecap="round" stroke-linejoin="round"/>
<path d="M104.142 55.883C105.248 52.7263 107.23 49.9495 109.855 47.8771C112.481 45.8046 115.641 44.5221 118.969 44.1795C122.296 43.8368 125.652 44.4481 128.645 45.9419C131.637 47.4357 134.143 49.7504 135.869 52.6154C137.595 55.4804 138.47 58.7775 138.392 62.1214C138.314 65.4654 137.286 68.718 135.428 71.4992C133.57 74.2805 130.959 76.4756 127.899 77.8279C124.84 79.1803 121.459 79.6341 118.152 79.1364" stroke="white" stroke-width="10" stroke-linecap="round" stroke-linejoin="round"/>
</g>
</svg>
