<svg width="213" height="181" viewBox="0 0 213 181" fill="none" xmlns="http://www.w3.org/2000/svg">
<path opacity="0.05" d="M97.7 73.2C97.7 70.8667 98.0667 68.8 98.8 67C99.6 65.2 100.567 63.6 101.7 62.2C102.9 60.8 104.167 59.5 105.5 58.3C106.833 57.1 108.067 55.9667 109.2 54.9C110.4 53.7667 111.367 52.6 112.1 51.4C112.9 50.2 113.3 48.8667 113.3 47.4C113.3 45 112.3 43.0667 110.3 41.6C108.367 40.1333 105.767 39.4 102.5 39.4C99.3667 39.4 96.5667 40.0667 94.1 41.4C91.6333 42.6667 89.6 44.4667 88 46.8L75.9 39.7C78.5667 35.6333 82.2667 32.4 87 30C91.7333 27.5333 97.4667 26.3 104.2 26.3C109.2 26.3 113.6 27.0333 117.4 28.5C121.2 29.9 124.167 31.9667 126.3 34.7C128.5 37.4333 129.6 40.8 129.6 44.8C129.6 47.4 129.2 49.7 128.4 51.7C127.6 53.7 126.567 55.4333 125.3 56.9C124.033 58.3667 122.667 59.7333 121.2 61C119.8 62.2667 118.467 63.5 117.2 64.7C115.933 65.9 114.867 67.1667 114 68.5C113.2 69.8333 112.8 71.4 112.8 73.2H97.7ZM105.3 98.3C102.5 98.3 100.2 97.4 98.4 95.6C96.6 93.8 95.7 91.6667 95.7 89.2C95.7 86.6667 96.6 84.5667 98.4 82.9C100.2 81.1667 102.5 80.3 105.3 80.3C108.167 80.3 110.467 81.1667 112.2 82.9C114 84.5667 114.9 86.6667 114.9 89.2C114.9 91.6667 114 93.8 112.2 95.6C110.467 97.4 108.167 98.3 105.3 98.3Z" fill="white"/>
<path opacity="0.05" d="M55.7848 126.607C54.6006 124.597 53.8676 122.63 53.5859 120.707C53.3616 118.75 53.3825 116.881 53.6484 115.099C53.9718 113.284 54.4034 111.521 54.9432 109.81C55.483 108.1 55.9705 106.497 56.4056 105.003C56.8644 103.417 57.1052 101.921 57.128 100.515C57.2082 99.0753 56.8762 97.7234 56.1318 96.4597C54.9137 94.3918 53.0708 93.2335 50.6032 92.9849C48.193 92.7024 45.5805 93.3901 42.7659 95.0481C40.0661 96.6384 37.9919 98.6339 36.5433 101.035C35.0608 103.378 34.2224 105.961 34.028 108.783L19.9988 108.807C20.2325 103.95 21.7795 99.2859 24.6398 94.8156C27.4662 90.2879 31.7802 86.3153 37.5819 82.8979C41.89 80.3602 46.0534 78.7589 50.072 78.094C54.0567 77.3716 57.6618 77.6466 60.8872 78.919C64.1701 80.1575 66.8266 82.5001 68.8567 85.9466C70.1763 88.1868 70.999 90.3716 71.3248 92.5009C71.6506 94.6302 71.6399 96.6481 71.2929 98.5547C70.9459 100.461 70.462 102.333 69.8412 104.168C69.2778 105.97 68.7549 107.71 68.2725 109.386C67.7902 111.063 67.514 112.696 67.444 114.285C67.4314 115.84 67.8819 117.393 68.7954 118.943L55.7848 126.607ZM75.0724 144.377C72.6599 145.798 70.2213 146.19 67.7568 145.553C65.2923 144.915 63.4341 143.534 62.1822 141.408C60.8964 139.226 60.6061 136.959 61.3111 134.61C61.9823 132.203 63.5242 130.289 65.9367 128.868C68.4067 127.413 70.8284 126.992 73.2016 127.606C75.5984 128.128 77.4397 129.481 78.7255 131.664C79.9774 133.789 80.2847 136.084 79.6473 138.549C79.0674 140.979 77.5424 142.922 75.0724 144.377Z" fill="white"/>
<path opacity="0.05" d="M138.335 115.627L150.234 124.923C156.76 116.57 171.107 125.495 180.958 112.887C188.223 103.588 184.152 91.9058 172.332 82.6708C161.694 74.3594 151.085 72.6699 141.781 75.807L146.945 88.8513C152.299 87.1966 157.884 88.0069 162.927 91.9472C168.049 95.949 169.529 101.039 166.512 104.9C161.156 111.756 146.955 104.595 138.335 115.627ZM128.871 140.085C133.284 143.533 138.96 142.764 142.039 138.824C145.178 134.805 144.366 129.348 139.953 125.901C135.54 122.453 130.049 122.985 126.909 127.004C123.83 130.944 124.458 136.637 128.871 140.085Z" fill="white"/>
</svg>
