<svg width="225" height="220" viewBox="0 0 225 220" fill="none" xmlns="http://www.w3.org/2000/svg">
<path d="M51.2469 15.8384L6.78424 137.998C5.31022 142.048 5.50536 146.518 7.32675 150.424C9.14814 154.33 12.4466 157.352 16.4964 158.826L169.196 214.405C171.221 215.142 173.456 215.044 175.409 214.133C177.362 213.223 178.873 211.573 179.61 209.548L218.515 102.658C219.252 100.633 219.155 98.3987 218.244 96.4457C217.333 94.4927 215.684 92.9815 213.659 92.2445L60.959 36.6662C56.9092 35.1922 53.6108 32.1697 51.7894 28.2637C49.968 24.3578 49.7728 19.8882 51.2469 15.8384ZM51.2469 15.8384C52.7209 11.7885 55.7433 8.49008 59.6493 6.66869C63.5553 4.8473 68.0248 4.65216 72.0747 6.12619L201.87 53.3677" stroke="white" stroke-width="10" stroke-linecap="round" stroke-linejoin="round"/>
</svg>
