<svg width="189" height="189" viewBox="0 0 189 189" fill="none" xmlns="http://www.w3.org/2000/svg">
<g opacity="0.05">
<path d="M59.5341 106.435C75.723 106.435 88.8466 93.3118 88.8466 77.123C88.8466 60.9342 75.723 47.8105 59.5341 47.8105C43.3453 47.8105 30.2217 60.9342 30.2217 77.123C30.2217 93.3118 43.3453 106.435 59.5341 106.435Z" stroke="white" stroke-width="10" stroke-linecap="round" stroke-linejoin="round"/>
<path d="M112.297 59.5352H182.647" stroke="white" stroke-width="10" stroke-linecap="round" stroke-linejoin="round"/>
<path d="M112.297 94.7109H182.647" stroke="white" stroke-width="10" stroke-linecap="round" stroke-linejoin="round"/>
<path d="M129.884 129.885H182.646" stroke="white" stroke-width="10" stroke-linecap="round" stroke-linejoin="round"/>
<path d="M14.0996 141.609C16.6826 131.52 22.5498 122.579 30.7762 116.193C39.0025 109.808 49.1201 106.342 59.5339 106.342C69.9477 106.342 80.0653 109.808 88.2917 116.193C96.518 122.579 102.385 131.52 104.968 141.609" stroke="white" stroke-width="10" stroke-linecap="round" stroke-linejoin="round"/>
</g>
</svg>
